<svg width="20" height="20" viewBox="0 0 20 20" fill="none" xmlns="http://www.w3.org/2000/svg">
<g clip-path="url(#clip0_122_790)">
<path fill-rule="evenodd" clip-rule="evenodd" d="M4.81694 3.93306C4.57286 3.68898 4.17714 3.68898 3.93306 3.93306C3.68898 4.17714 3.68898 4.57286 3.93306 4.81694L9.11612 10L3.93306 15.1831C3.68898 15.4271 3.68898 15.8229 3.93306 16.0669C4.17714 16.311 4.57286 16.311 4.81694 16.0669L10 10.8839L15.1831 16.0669C15.4271 16.311 15.8229 16.311 16.0669 16.0669C16.311 15.8229 16.311 15.4271 16.0669 15.1831L10.8839 10L16.0669 4.81694C16.311 4.57286 16.311 4.17714 16.0669 3.93306C15.8229 3.68898 15.4271 3.68898 15.1831 3.93306L10 9.11612L4.81694 3.93306Z" fill="#717171"/>
</g>
<defs>
<clipPath id="clip0_122_790">
<rect width="20" height="20" fill="white"/>
</clipPath>
</defs>
</svg>
