<svg width="16" height="17" viewBox="0 0 16 17" fill="none" xmlns="http://www.w3.org/2000/svg">
<path fill-rule="evenodd" clip-rule="evenodd" d="M6 1.45508C5.17157 1.45508 4.5 2.12665 4.5 2.95508V3.45508H2.5H1.95248H1.5C1.22386 3.45508 1 3.67894 1 3.95508C1 4.23122 1.22386 4.45508 1.5 4.45508H2.04339L2.8367 13.1814C2.95376 14.4691 4.03342 15.4551 5.32643 15.4551H10.6736C11.9666 15.4551 13.0462 14.4691 13.1633 13.1814L13.9566 4.45508H14.5C14.7761 4.45508 15 4.23122 15 3.95508C15 3.67894 14.7761 3.45508 14.5 3.45508L14.0475 3.45508H13.5H11.5V2.95508C11.5 2.12665 10.8284 1.45508 10 1.45508H6ZM10.5 3.45508V2.95508C10.5 2.67894 10.2761 2.45508 10 2.45508H6C5.72386 2.45508 5.5 2.67894 5.5 2.95508V3.45508H10.5ZM5 4.45508H3.04752L3.83259 13.0909C3.90283 13.8635 4.55062 14.4551 5.32643 14.4551H10.6736C11.4494 14.4551 12.0972 13.8635 12.1674 13.0909L12.9525 4.45508H11H5ZM7 6.45508C7 6.17894 6.77614 5.95508 6.5 5.95508C6.22386 5.95508 6 6.17894 6 6.45508V11.4551C6 11.7312 6.22386 11.9551 6.5 11.9551C6.77614 11.9551 7 11.7312 7 11.4551V6.45508ZM9.5 5.95508C9.77614 5.95508 10 6.17894 10 6.45508V11.4551C10 11.7312 9.77614 11.9551 9.5 11.9551C9.22386 11.9551 9 11.7312 9 11.4551V6.45508C9 6.17894 9.22386 5.95508 9.5 5.95508Z" fill="#D33852"/>
</svg>
