<svg width="20" height="20" viewBox="0 0 20 20" fill="none" xmlns="http://www.w3.org/2000/svg">
<path d="M8.75 3.75C8.75 4.44036 9.30964 5.00001 10 5.00001C10.6904 5.00001 11.25 4.44036 11.25 3.75C11.25 3.05965 10.6904 2.5 10 2.5C9.30964 2.5 8.75 3.05965 8.75 3.75Z" fill="#222222"/>
<path d="M8.75 16.25C8.75 16.9404 9.30964 17.5 10 17.5C10.6904 17.5 11.25 16.9404 11.25 16.25C11.25 15.5597 10.6904 15 10 15C9.30964 15 8.75 15.5597 8.75 16.25Z" fill="#222222"/>
<path d="M10 11.25C9.30964 11.25 8.75 10.6904 8.75 10C8.75 9.30965 9.30964 8.75 10 8.75C10.6904 8.75 11.25 9.30965 11.25 10C11.25 10.6904 10.6904 11.25 10 11.25Z" fill="#222222"/>
</svg>
