<svg width="20" height="20" viewBox="0 0 20 20" fill="none" xmlns="http://www.w3.org/2000/svg">
<path d="M6.875 5.00001C6.18464 5.00001 5.625 4.44036 5.625 3.75C5.625 3.05965 6.18464 2.5 6.875 2.5C7.56535 2.5 8.125 3.05965 8.125 3.75C8.125 4.44036 7.56535 5.00001 6.875 5.00001Z" fill="#717171"/>
<path d="M6.875 17.5C6.18464 17.5 5.625 16.9404 5.625 16.25C5.625 15.5597 6.18464 15 6.875 15C7.56535 15 8.125 15.5597 8.125 16.25C8.125 16.9404 7.56535 17.5 6.875 17.5Z" fill="#717171"/>
<path d="M5.625 10C5.625 10.6904 6.18464 11.25 6.875 11.25C7.56535 11.25 8.125 10.6904 8.125 10C8.125 9.30965 7.56535 8.75 6.875 8.75C6.18464 8.75 5.625 9.30965 5.625 10Z" fill="#717171"/>
<path d="M13.125 17.5C12.4346 17.5 11.875 16.9404 11.875 16.25C11.875 15.5597 12.4346 15 13.125 15C13.8154 15 14.375 15.5597 14.375 16.25C14.375 16.9404 13.8154 17.5 13.125 17.5Z" fill="#717171"/>
<path d="M11.875 3.75C11.875 4.44036 12.4346 5.00001 13.125 5.00001C13.8154 5.00001 14.375 4.44036 14.375 3.75C14.375 3.05965 13.8154 2.5 13.125 2.5C12.4346 2.5 11.875 3.05965 11.875 3.75Z" fill="#717171"/>
<path d="M13.125 11.25C12.4346 11.25 11.875 10.6904 11.875 10C11.875 9.30965 12.4346 8.75 13.125 8.75C13.8154 8.75 14.375 9.30965 14.375 10C14.375 10.6904 13.8154 11.25 13.125 11.25Z" fill="#717171"/>
</svg>
