<svg width="20" height="21" viewBox="0 0 20 21" fill="none" xmlns="http://www.w3.org/2000/svg">
<path d="M11.692 4.73675C12.8286 3.60012 14.6714 3.60012 15.8081 4.73675C16.9447 5.87339 16.9447 7.71624 15.8081 8.85287L13.4597 11.2012C12.2393 12.4216 10.2607 12.4216 9.0403 11.2012L8.56695 10.7279C8.32288 10.4838 7.92715 10.4838 7.68307 10.7279C7.43899 10.9719 7.43899 11.3677 7.68307 11.6118L8.15642 12.0851C9.86496 13.7936 12.6351 13.7936 14.3436 12.0851L16.692 9.73675C18.3167 8.11196 18.3167 5.47766 16.692 3.85287C15.0672 2.22808 12.4329 2.22808 10.8081 3.85287L8.93307 5.72787C8.68899 5.97195 8.68899 6.36768 8.93307 6.61175C9.17715 6.85583 9.57288 6.85583 9.81695 6.61175L11.692 4.73675Z" fill="#717171"/>
<path d="M6.5403 9.88839C7.76069 8.668 9.73933 8.668 10.9597 9.88839L11.4331 10.3617C11.6771 10.6058 12.0729 10.6058 12.317 10.3617C12.561 10.1177 12.561 9.72193 12.317 9.47785L11.8436 9.0045C10.1351 7.29596 7.36496 7.29596 5.65642 9.00451L3.30807 11.3529C1.68328 12.9777 1.68328 15.612 3.30807 17.2367C4.93286 18.8615 7.56716 18.8615 9.19196 17.2367L11.067 15.3617C11.311 15.1177 11.311 14.7219 11.067 14.4779C10.8229 14.2338 10.4271 14.2338 10.1831 14.4779L8.30807 16.3529C7.17144 17.4895 5.32859 17.4895 4.19196 16.3529C3.05532 15.2162 3.05532 13.3734 4.19195 12.2367L6.5403 9.88839Z" fill="#717171"/>
</svg>
