<svg width="16" height="16" viewBox="0 0 16 16" fill="none" xmlns="http://www.w3.org/2000/svg">
<path d="M9.35361 3.35361C10.2629 2.4443 11.7372 2.4443 12.6465 3.35361C13.5558 4.26292 13.5558 5.7372 12.6465 6.6465L10.7678 8.52518C9.79152 9.50149 8.2086 9.5015 7.2323 8.52519L6.85361 8.1465C6.65835 7.95124 6.34177 7.95124 6.14651 8.1465C5.95125 8.34177 5.95125 8.65835 6.14651 8.85361L6.52519 9.23229C7.89202 10.5991 10.1081 10.5991 11.4749 9.23229L13.3536 7.35361C14.6534 6.05378 14.6534 3.94634 13.3536 2.6465C12.0538 1.34667 9.94634 1.34667 8.64651 2.6465L7.14651 4.1465C6.95125 4.34177 6.95125 4.65835 7.14651 4.85361C7.34177 5.04887 7.65835 5.04887 7.85361 4.85361L9.35361 3.35361Z" fill="#05B2C7"/>
<path d="M5.23229 7.47493C6.2086 6.49861 7.79152 6.49861 8.76783 7.47492L9.14651 7.8536C9.34177 8.04886 9.65835 8.04886 9.85361 7.8536C10.0489 7.65834 10.0489 7.34176 9.85361 7.1465L9.47493 6.76782C8.1081 5.40098 5.89202 5.40098 4.52518 6.76782L2.6465 8.6465C1.34667 9.94634 1.34667 12.0538 2.64651 13.3536C3.94634 14.6534 6.05378 14.6534 7.35361 13.3536L8.85361 11.8536C9.04887 11.6583 9.04887 11.3418 8.85361 11.1465C8.65835 10.9512 8.34177 10.9512 8.14651 11.1465L6.6465 12.6465C5.7372 13.5558 4.26292 13.5558 3.35361 12.6465C2.4443 11.7372 2.4443 10.2629 3.35361 9.35361L5.23229 7.47493Z" fill="#05B2C7"/>
</svg>
