<svg width="16" height="16" viewBox="0 0 16 16" fill="none" xmlns="http://www.w3.org/2000/svg">
<path fill-rule="evenodd" clip-rule="evenodd" d="M6.91938 2.19668C7.16762 2.32581 7.38778 2.50406 7.55728 2.68533C7.56359 2.69209 7.56972 2.69902 7.57566 2.70611C7.99261 3.20484 7.99945 3.84653 7.92379 4.35802C7.85678 4.81109 7.70678 5.27128 7.59461 5.6154C7.57802 5.66629 7.56226 5.71464 7.54772 5.76006L7.54498 5.76835C7.49102 5.92725 7.43949 6.08309 7.39021 6.23593C7.7253 6.53996 8.09046 6.83948 8.47113 7.1228C8.85902 7.41149 9.25764 7.67935 9.65058 7.91539C9.76203 7.81682 9.86979 7.7197 9.97497 7.62491C10.0726 7.53693 10.168 7.45096 10.2621 7.36768C10.8834 6.81761 11.5854 6.24221 12.511 6.45465C12.5202 6.4558 12.5276 6.45695 12.5329 6.45779C12.5641 6.46273 12.593 6.46951 12.6172 6.47596C12.6662 6.48901 12.7182 6.50676 12.7702 6.52725C12.8749 6.56849 13.0004 6.62921 13.1299 6.71037C13.3802 6.8673 13.6987 7.13471 13.8634 7.53912C14.0339 7.95796 13.9802 8.39685 13.8506 8.74612C13.7216 9.09382 13.4948 9.41658 13.2232 9.6225L13.2205 9.62453C12.8817 9.8779 12.4575 9.93463 12.0548 9.90534C11.6467 9.87564 11.1985 9.7538 10.7437 9.57782C10.4288 9.45592 10.1005 9.30404 9.76719 9.12873C9.31926 9.49106 8.79323 9.86765 8.16231 10.2076L8.15994 10.2089C7.48698 10.5668 6.83329 10.7961 6.23026 10.9557C6.22235 10.993 6.21446 11.0298 6.20656 11.0662C6.07649 11.6664 5.93768 12.1977 5.70921 12.6199C5.46576 13.0698 5.12087 13.3966 4.61079 13.5847C4.60335 13.5874 4.59584 13.59 4.58828 13.5924C4.3474 13.6684 4.01533 13.7286 3.66981 13.717C3.32855 13.7056 2.91886 13.6216 2.58332 13.3519C2.56488 13.3371 2.54751 13.321 2.53135 13.3037C2.30806 13.0649 2.19902 12.754 2.13851 12.5108C2.07681 12.2628 2.05008 12.0169 2.03311 11.8608L2.03223 11.8526C2.02477 11.784 2.03158 11.7147 2.05224 11.6489C2.20965 11.1472 2.55715 10.8479 2.97069 10.6627C3.35592 10.4902 3.83174 10.402 4.30375 10.3212C4.36626 10.3105 4.42952 10.2999 4.49352 10.289C4.77527 10.2414 5.07124 10.1914 5.37907 10.1279C5.56583 9.2018 5.80629 8.01039 6.25088 6.53146C5.95504 6.23508 5.68656 5.93514 5.45693 5.63942C5.15462 5.2501 4.9062 4.85098 4.75685 4.46276C4.61432 4.09224 4.54398 3.68317 4.66002 3.29313C4.71414 3.00536 4.89498 2.72001 5.09665 2.50892C5.31494 2.28043 5.64174 2.05056 6.03808 2.00746C6.36659 1.97173 6.67435 2.06921 6.91938 2.19668ZM6.59846 5.4454C6.61416 5.39645 6.63021 5.34699 6.6464 5.29709C6.76021 4.94637 6.8809 4.57444 6.93456 4.21169C6.99638 3.79371 6.94695 3.52159 6.81639 3.35726C6.71511 3.25128 6.58787 3.15144 6.45789 3.08383C6.3202 3.0122 6.2142 2.9942 6.1462 3.0016C6.06674 3.01024 5.9436 3.07002 5.81971 3.1997C5.76217 3.25993 5.71583 3.32395 5.68393 3.38125C5.66818 3.40954 5.65745 3.43351 5.65067 3.45194C5.64426 3.46937 5.6428 3.47799 5.64278 3.47799C5.64278 3.47799 5.64276 3.47813 5.64278 3.47799C5.63858 3.50852 5.6316 3.53838 5.62186 3.56762C5.58952 3.66474 5.58651 3.83423 5.69017 4.10371C5.79208 4.36863 5.97902 4.6813 6.24677 5.02611C6.35373 5.16386 6.47146 5.30402 6.59846 5.4454ZM7.07182 7.28695C6.79108 8.27735 6.60563 9.12299 6.45666 9.84754C6.8555 9.71789 7.26771 9.55069 7.68918 9.3266C8.12291 9.09281 8.49928 8.84184 8.83625 8.5877C8.51069 8.38114 8.18748 8.15825 7.87408 7.925C7.59978 7.72085 7.33059 7.50697 7.07182 7.28695ZM5.15288 11.1902C4.98566 11.2204 4.82556 11.2473 4.67358 11.2729C4.60484 11.2844 4.53775 11.2957 4.47242 11.3069C3.97947 11.3913 3.63017 11.4631 3.37939 11.5754C3.19765 11.6567 3.09803 11.7453 3.03977 11.8638C3.05521 11.9943 3.07532 12.1343 3.10893 12.2694C3.14889 12.43 3.19696 12.5356 3.2409 12.5953C3.34586 12.6659 3.50184 12.7108 3.70336 12.7176C3.91604 12.7247 4.12921 12.6871 4.27598 12.6422C4.53088 12.5457 4.69309 12.3965 4.82973 12.144C4.95282 11.9165 5.05146 11.6119 5.15288 11.1902ZM10.5861 8.42078C10.7639 8.50525 10.9373 8.58046 11.1047 8.64522C11.5072 8.80103 11.8534 8.88804 12.1274 8.90797C12.4052 8.92818 12.5507 8.87605 12.6205 8.82455C12.7193 8.74902 12.8407 8.59307 12.913 8.39824C12.9851 8.20403 12.9857 8.03521 12.9372 7.91619C12.8829 7.78274 12.7574 7.65712 12.5987 7.55765C12.5237 7.5106 12.4535 7.47727 12.4035 7.45759C12.3912 7.45273 12.3813 7.44919 12.374 7.44672C12.3522 7.44412 12.3306 7.44009 12.3092 7.43462C11.937 7.33942 11.6108 7.50925 10.9249 8.11643C10.8385 8.19291 10.7483 8.27434 10.6538 8.35968C10.6315 8.37983 10.609 8.4002 10.5861 8.42078Z" fill="#F75961"/>
</svg>
