<svg width="16" height="17" viewBox="0 0 16 17" fill="none" xmlns="http://www.w3.org/2000/svg">
<path fill-rule="evenodd" clip-rule="evenodd" d="M1.5 11.4553C1.5 11.3227 1.55268 11.1955 1.64645 11.1017L10.2322 2.51592C11.2085 1.53961 12.7915 1.53962 13.7678 2.51593L13.9393 2.6875C14.9156 3.66381 14.9157 5.24672 13.9393 6.22303L5.35355 14.8088C5.25978 14.9026 5.13261 14.9553 5 14.9553H2C1.86739 14.9553 1.74021 14.9026 1.64645 14.8088C1.55268 14.715 1.5 14.5879 1.5 14.4553V11.4553ZM2.5 11.6624L2.5 13.9553H4.79289L11.7929 6.95524L9.50002 4.66235L2.5 11.6624ZM10.2071 3.95524L12.5 6.24814L13.2322 5.51593C13.818 4.93014 13.818 3.98039 13.2322 3.3946L13.0607 3.22303C12.4749 2.63725 11.5251 2.63724 10.9393 3.22303L10.2071 3.95524Z" fill="#717171"/>
<path d="M8 14.4553C8 14.1791 8.22386 13.9553 8.5 13.9553H13.5C13.7761 13.9553 14 14.1791 14 14.4553C14 14.7314 13.7761 14.9553 13.5 14.9553H8.5C8.22386 14.9553 8 14.7314 8 14.4553Z" fill="#717171"/>
</svg>
