<svg width="272" height="193" viewBox="0 0 272 193" fill="none" xmlns="http://www.w3.org/2000/svg">
<line x1="23.6666" y1="177.323" x2="248.333" y2="177.323" stroke="#EBEBEB" stroke-width="2" stroke-linecap="round"/>
<rect width="29.2968" height="100.508" rx="4" transform="matrix(0.971112 -0.23931 0.279771 0.960261 40.6595 33.127)" fill="#FFAB00"/>
<path d="M66.6807 120.821L70.1701 119.948" stroke="#C28200" stroke-width="2" stroke-miterlimit="16" stroke-linecap="round"/>
<path d="M64.7512 114.092L72.512 112.149" stroke="#C28200" stroke-width="2" stroke-miterlimit="16" stroke-linecap="round"/>
<path d="M62.8218 107.363L66.3112 106.489" stroke="#C28200" stroke-width="2" stroke-miterlimit="16" stroke-linecap="round"/>
<path d="M60.8923 100.634L68.6531 98.6905" stroke="#C28200" stroke-width="2" stroke-miterlimit="16" stroke-linecap="round"/>
<path d="M58.9629 93.9043L62.4523 93.0305" stroke="#C28200" stroke-width="2" stroke-miterlimit="16" stroke-linecap="round"/>
<path d="M57.0334 87.1753L64.7942 85.232" stroke="#C28200" stroke-width="2" stroke-miterlimit="16" stroke-linecap="round"/>
<path d="M55.104 80.4458L58.5934 79.572" stroke="#C28200" stroke-width="2" stroke-miterlimit="16" stroke-linecap="round"/>
<path d="M53.1746 73.7168L60.9354 71.7735" stroke="#C28200" stroke-width="2" stroke-miterlimit="16" stroke-linecap="round"/>
<path d="M51.2451 66.9873L54.7345 66.1136" stroke="#C28200" stroke-width="2" stroke-miterlimit="16" stroke-linecap="round"/>
<path d="M49.3157 60.2578L57.0765 58.3145" stroke="#C28200" stroke-width="2" stroke-miterlimit="16" stroke-linecap="round"/>
<path d="M47.3862 53.5288L50.8756 52.6551" stroke="#C28200" stroke-width="2" stroke-miterlimit="16" stroke-linecap="round"/>
<path d="M45.4568 46.7993L53.2176 44.856" stroke="#C28200" stroke-width="2" stroke-miterlimit="16" stroke-linecap="round"/>
<path d="M43.5273 40.0703L47.0167 39.1966" stroke="#C28200" stroke-width="2" stroke-miterlimit="16" stroke-linecap="round"/>
<rect width="126.74" height="108.294" rx="4" transform="matrix(0.993686 0.113871 -0.149584 0.988983 79.4408 21.1606)" fill="#6BDEEF"/>
<rect width="109.758" height="100.994" rx="4" transform="matrix(0.993686 0.113866 -0.14959 0.988982 86.839 29.2627)" fill="white"/>
<circle cx="2" cy="2" r="2" transform="matrix(0.99279 0.120025 -0.141917 0.989899 87.0742 35.6948)" fill="#6BDEEF"/>
<circle cx="2" cy="2" r="2" transform="matrix(0.99279 0.120025 -0.141917 0.989899 85.3712 47.5737)" fill="#6BDEEF"/>
<circle cx="2" cy="2" r="2" transform="matrix(0.99279 0.120025 -0.141917 0.989899 83.6682 59.4526)" fill="#6BDEEF"/>
<circle cx="2" cy="2" r="2" transform="matrix(0.99279 0.120025 -0.141917 0.989899 81.9652 71.3311)" fill="#6BDEEF"/>
<circle cx="2" cy="2" r="2" transform="matrix(0.99279 0.120025 -0.141917 0.989899 80.2622 83.21)" fill="#6BDEEF"/>
<circle cx="2" cy="2" r="2" transform="matrix(0.99279 0.120025 -0.141917 0.989899 78.5592 95.0889)" fill="#6BDEEF"/>
<circle cx="2" cy="2" r="2" transform="matrix(0.99279 0.120025 -0.141917 0.989899 76.8562 106.968)" fill="#6BDEEF"/>
<circle cx="2" cy="2" r="2" transform="matrix(0.99279 0.120025 -0.141917 0.989899 75.1532 118.846)" fill="#6BDEEF"/>
<path d="M84.8185 41.6006L194.178 54.1404" stroke="#DBDBDB" stroke-width="2" stroke-miterlimit="16" stroke-linecap="square"/>
<path d="M83.0245 53.4688L192.384 66.0085" stroke="#DBDBDB" stroke-width="2" stroke-miterlimit="16" stroke-linecap="square"/>
<path d="M81.2307 65.3364L190.591 77.8762" stroke="#DBDBDB" stroke-width="2" stroke-miterlimit="16" stroke-linecap="square"/>
<path d="M79.4368 77.2046L188.797 89.7444" stroke="#DBDBDB" stroke-width="2" stroke-miterlimit="16" stroke-linecap="square"/>
<path d="M77.6428 89.0723L187.003 101.612" stroke="#DBDBDB" stroke-width="2" stroke-miterlimit="16" stroke-linecap="square"/>
<path d="M75.8489 100.94L185.209 113.48" stroke="#DBDBDB" stroke-width="2" stroke-miterlimit="16" stroke-linecap="square"/>
<path d="M74.0551 112.808L183.415 125.348" stroke="#DBDBDB" stroke-width="2" stroke-miterlimit="16" stroke-linecap="square"/>
<path d="M72.2611 124.676L181.621 137.216" stroke="#DBDBDB" stroke-width="2" stroke-miterlimit="16" stroke-linecap="square"/>
<path d="M87.6123 37.5254L82.6577 36.9311" stroke="#008392" stroke-width="2" stroke-miterlimit="16" stroke-linecap="round"/>
<path d="M85.896 49.4028L80.9414 48.8086" stroke="#008392" stroke-width="2" stroke-miterlimit="16" stroke-linecap="round"/>
<path d="M84.1797 61.2798L79.2251 60.6855" stroke="#008392" stroke-width="2" stroke-miterlimit="16" stroke-linecap="round"/>
<path d="M82.4634 73.1572L77.5088 72.563" stroke="#008392" stroke-width="2" stroke-miterlimit="16" stroke-linecap="round"/>
<path d="M80.7471 85.0342L75.7924 84.4399" stroke="#008392" stroke-width="2" stroke-miterlimit="16" stroke-linecap="round"/>
<path d="M79.0308 96.9116L74.0761 96.3173" stroke="#008392" stroke-width="2" stroke-miterlimit="16" stroke-linecap="round"/>
<path d="M77.3145 108.789L72.3598 108.195" stroke="#008392" stroke-width="2" stroke-miterlimit="16" stroke-linecap="round"/>
<path d="M75.598 120.666L70.6434 120.072" stroke="#008392" stroke-width="2" stroke-miterlimit="16" stroke-linecap="round"/>
<path d="M185.625 59.6436L222.115 50.4411L218.776 55.8844L224.56 59.0271L188.069 68.2296L185.625 59.6436Z" fill="#FEC3CE"/>
<rect width="37.633" height="114.268" rx="4" transform="matrix(0.969641 0.244531 -0.273816 0.961782 182.761 14.7495)" fill="#A3A3F5"/>
<rect width="37.633" height="8.92719" transform="matrix(0.969641 0.244531 -0.273816 0.961782 174.206 44.8008)" fill="#FF8DA6"/>
<path d="M208.305 21.1914L215.374 22.974C217.516 23.5142 218.762 25.6746 218.157 27.7993L189.059 130.006C188.454 132.131 186.227 133.415 184.085 132.875L177.017 131.092L208.305 21.1914Z" fill="#8888F2"/>
<rect width="11.2899" height="8.92719" transform="matrix(0.969641 0.244531 -0.273816 0.961782 199.75 51.2422)" fill="#F76E88"/>
<path d="M45.3333 76.9893H151.111V176.545H53.3332C48.915 176.545 45.3333 172.963 45.3333 168.545V76.9893Z" fill="#FFDF99"/>
<path d="M45.3333 76.9893H151.111L128.444 98.3226H22.6666L45.3333 76.9893Z" fill="#FFEDC1"/>
<rect x="151.111" y="76.9893" width="75.5556" height="99.5556" fill="#FFCC66"/>
<path d="M226.667 76.9893H151.111L173.778 98.3226H249.333L226.667 76.9893Z" fill="#FFDF99"/>
<rect x="167.167" y="165.878" width="59.5" height="10.6667" fill="#26C7D9"/>
<path d="M226.667 165.878V176.545L238 171.212L226.667 165.878Z" fill="#FFEDC1"/>
<path d="M232.333 173.878L238 171.212L232.333 168.545V173.878Z" fill="#222222"/>
<rect width="2.83334" height="10.6667" transform="matrix(-1 0 0 1 167.167 165.878)" fill="white"/>
<path d="M158.667 168.878C158.667 167.222 160.01 165.878 161.667 165.878H164.333V176.545H161.667C160.01 176.545 158.667 175.202 158.667 173.545V168.878Z" fill="#F76E88"/>
<rect x="167.167" y="173.878" width="59.5" height="2.66667" fill="#05B2C7"/>
</svg>
