<svg width="20" height="21" viewBox="0 0 20 21" fill="none" xmlns="http://www.w3.org/2000/svg">
<path fill-rule="evenodd" clip-rule="evenodd" d="M1.875 4.29492C1.875 3.25939 2.71447 2.41992 3.75 2.41992H16.25C17.2855 2.41992 18.125 3.25939 18.125 4.29492V16.7949C18.125 17.8305 17.2855 18.6699 16.25 18.6699H3.75C2.71447 18.6699 1.875 17.8305 1.875 16.7949V4.29492ZM3.125 12.4199H16.875V8.66992H3.125V12.4199ZM3.125 13.6699V16.7949C3.125 17.1401 3.40482 17.4199 3.75 17.4199H16.25C16.5952 17.4199 16.875 17.1401 16.875 16.7949V13.6699H3.125ZM16.875 4.29492V7.41992H3.125V4.29492C3.125 3.94974 3.40482 3.66992 3.75 3.66992H16.25C16.5952 3.66992 16.875 3.94974 16.875 4.29492Z" fill="#717171"/>
</svg>
