<svg width="20" height="21" viewBox="0 0 20 21" fill="none" xmlns="http://www.w3.org/2000/svg">
<path d="M4.55806 6.97798C4.31398 7.22206 4.31398 7.61779 4.55806 7.86186C4.80214 8.10594 5.19786 8.10594 5.44194 7.86186L9.375 3.92881L9.375 14.9199C9.375 15.2651 9.65482 15.5449 10 15.5449C10.3452 15.5449 10.625 15.2651 10.625 14.9199L10.625 3.92881L14.5581 7.86187C14.8021 8.10594 15.1979 8.10594 15.4419 7.86187C15.686 7.61779 15.686 7.22206 15.4419 6.97798L10.4419 1.97798C10.4381 1.97416 10.4343 1.97039 10.4303 1.96668C10.316 1.85813 10.1648 1.7967 10.0069 1.79496C10.0046 1.79493 10.0023 1.79492 10 1.79492C9.99769 1.79492 9.99539 1.79493 9.99309 1.79496C9.83141 1.79675 9.67667 1.86113 9.56143 1.97463C9.5603 1.97574 9.55918 1.97686 9.55806 1.97798L4.55806 6.97798Z" fill="#222222"/>
<path d="M1.875 18.6699C1.875 18.3247 2.15482 18.0449 2.5 18.0449H17.5C17.8452 18.0449 18.125 18.3247 18.125 18.6699C18.125 19.0151 17.8452 19.2949 17.5 19.2949H2.5C2.15482 19.2949 1.875 19.0151 1.875 18.6699Z" fill="#222222"/>
</svg>
